<svg xmlns="http://www.w3.org/2000/svg" xml:space="preserve" width="1500" height="80" data-id="lg_vvo9hmY9sleJ9X08VV" data-version="1"><g data-padding="20"><g fill="#001f3f"><path d="M521.945 59.516q-7.04 0-12.475-3.001t-8.522-8.214q-3.078-5.214-3.078-11.994 0-5.387 1.731-9.82 1.741-4.435 4.829-7.695t7.387-5.04 9.34-1.78q4.433 0 8.261 1.693 3.819 1.693 6.647 4.655 2.827 2.953 4.347 6.993t1.433 8.82l-.086 3.828h-37.29l-1.992-7.127h31.548l-1.308 1.471v-2.087q-.26-2.866-1.914-5.126-1.644-2.26-4.174-3.56-2.52-1.307-5.473-1.307-4.694 0-7.906 1.789-3.213 1.78-4.867 5.213t-1.654 8.474q0 4.78 2 8.3t5.646 5.425q3.655 1.914 8.435 1.914 3.386 0 6.3-1.125 2.915-1.135 6.3-4.088l4.521 6.348q-2.087 2.078-5.088 3.645-2.991 1.568-6.338 2.482t-6.56.914m47.534-.876h-6.435l-19.285-45.629h9.638l13.908 34.155-1.645.788 14.86-34.943h9.205Zm45.802.876q-7.04 0-12.475-3.001-5.425-3.001-8.512-8.214t-3.088-11.994q0-5.387 1.741-9.82t4.819-7.695q3.088-3.261 7.387-5.04 4.309-1.78 9.349-1.78 4.424 0 8.252 1.693t6.647 4.655q2.827 2.953 4.347 6.993t1.433 8.82l-.086 3.828h-37.28l-2.001-7.127h31.548l-1.308 1.471v-2.087q-.26-2.866-1.905-5.126-1.654-2.26-4.174-3.56-2.52-1.307-5.473-1.307-4.694 0-7.916 1.789-3.212 1.78-4.867 5.213-1.645 3.434-1.645 8.474 0 4.78 2.001 8.3 1.991 3.52 5.646 5.425 3.645 1.914 8.426 1.914 3.395 0 6.3-1.125 2.914-1.135 6.31-4.088l4.51 6.348q-2.077 2.078-5.078 3.645t-6.348 2.482-6.56.914m27.027-.876V13.011h8.955v9.387l-1.568 1.049q.876-3.05 3.396-5.608 2.52-2.568 5.992-4.174t7.127-1.606q5.213 0 8.695 2.039 3.472 2.049 5.213 6.213 1.731 4.175 1.731 10.523V58.64h-8.945v-27.2q0-3.915-1.048-6.473-1.039-2.569-3.213-3.742t-5.386-1q-2.606 0-4.78.827t-3.78 2.308q-1.606 1.472-2.52 3.434-.914 1.953-.914 4.213V58.64Zm63.703 0h-8.945V1.373h8.945Zm10.609-36.934h-29.028v-8.695h29.028Zm21.554 37.81q-4.867 0-8.473-2.26t-5.57-6.349q-1.952-4.088-1.952-9.734V13.011h8.955V38.74q0 5.992 2.818 9.474 2.828 3.472 7.868 3.472 2.52 0 4.607-.827 2.087-.817 3.607-2.299t2.395-3.558q.865-2.088.865-4.521V13.01h8.955v45.63h-8.955v-9.56l1.568-1.04q-1.048 3.213-3.52 5.82-2.482 2.607-5.867 4.126-3.396 1.53-7.3 1.53m51.275 19.111h-9.648l9.215-21.285.086 7.127-22.776-51.458h10.436l14.245 33.549q.442.875 1.048 2.654t1.039 3.52l-2.26.52q.702-1.827 1.346-3.655.654-1.818 1.26-3.645L805.35 13.01h10.609l-18.775 45.63Z" font-family="Readex Pro" font-size="90.358"/><path d="M838.291 55.409h-8.07v-8.484h8.07Zm27.71.663q-6.242 0-10.82-2.866-4.578-2.876-7.117-7.781-2.53-4.915-2.53-10.82 0-5.993 2.53-10.86 2.539-4.867 7.117-7.733 4.578-2.876 10.82-2.876 7.407 0 12.6 3.828 5.204 3.828 7.032 9.907H878.9q-1.414-3.578-4.54-5.829-3.116-2.25-7.531-2.25-4.578 0-7.983 2.164-3.415 2.164-5.242 5.742-1.837 3.578-1.837 7.906 0 4.242 1.837 7.868 1.827 3.616 5.242 5.78 3.405 2.165 7.983 2.165 4.415 0 7.531-2.251 3.126-2.241 4.54-5.82h6.733q-1.828 6.07-7.031 9.898-5.194 3.828-12.6 3.828m45.427 0q-6.32 0-10.984-2.866-4.655-2.876-7.156-7.781-2.491-4.915-2.491-10.82 0-5.993 2.49-10.86 2.502-4.867 7.157-7.733 4.665-2.876 10.984-2.876 6.406 0 11.032 2.876 4.617 2.866 7.108 7.733 2.501 4.867 2.501 10.86 0 5.905-2.5 10.82-2.492 4.905-7.109 7.781-4.626 2.866-11.032 2.866m0-5.655q4.665 0 7.868-2.164t4.867-5.781q1.664-3.626 1.664-7.868 0-4.328-1.664-7.906t-4.867-5.742-7.868-2.164q-4.569 0-7.82 2.164-3.241 2.164-4.905 5.742t-1.664 7.906q0 4.242 1.664 7.868 1.664 3.616 4.905 5.78 3.251 2.165 7.82 2.165m35.117 4.992h-6.243v-41.61h6.243v6.33q1.413-2.501 4.491-4.742 3.078-2.251 8.157-2.251 4.164 0 7.694 2.203 3.54 2.212 5.54 6.203.828-1.413 2.617-3.414 1.789-1.991 4.703-3.492t6.993-1.5q3.991 0 7.483 2.078 3.5 2.087 5.703 5.953t2.203 9.109v25.133h-6.242v-24.96q0-5.242-2.953-8.445-2.953-3.212-7.358-3.212-4.579 0-7.907 3.087-3.327 3.078-3.327 8.647v24.883H968.1v-24.96q0-5.242-2.953-8.445-2.952-3.212-7.367-3.212-4.579 0-7.906 3.087-3.328 3.078-3.328 8.647Z" font-family="Questrial" font-size="86.513"/></g><path fill="transparent" stroke="transparent" d="M488 0h524v80H488z"/></g></svg>