<svg xmlns="http://www.w3.org/2000/svg" xml:space="preserve" width="1500" height="1500" stroke="#000" data-id="lg_vvo9hmY9sleJ9X08VV" data-version="1"><path fill="#fff" stroke="transparent" d="M0 0h1500v1500H0z"/><g data-padding="20"><g fill="#1b1b1b" stroke-width="1.836"><path d="M314.78 787.243q-13.436 0-23.807-5.726T274.71 765.84q-5.874-9.949-5.874-22.89 0-10.279 3.304-18.74 3.323-8.463 9.215-14.685t14.097-9.618 17.823-3.396q8.462 0 15.767 3.23 7.288 3.231 12.684 8.885 5.397 5.635 8.297 13.344t2.735 16.832l-.165 7.306h-71.165l-3.8-13.602h60.207l-2.497 2.809v-3.984q-.495-5.47-3.652-9.783-3.14-4.314-7.967-6.792-4.809-2.496-10.444-2.496-8.958 0-15.088 3.414-6.131 3.396-9.288 9.949t-3.157 16.171q0 9.123 3.818 15.84t10.774 10.353q6.975 3.653 16.098 3.653 6.461 0 12.023-2.147 5.562-2.166 12.023-7.801l8.627 12.114q-3.983 3.965-9.71 6.957-5.709 2.992-12.096 4.736t-12.519 1.743m90.713-1.67h-12.28l-36.802-87.079h18.392l26.542 65.18-3.139 1.506 28.36-66.686h17.566Zm87.41 1.67q-13.437 0-23.808-5.726-10.352-5.727-16.244-15.676t-5.892-22.89q0-10.279 3.322-18.74t9.196-14.685q5.892-6.223 14.097-9.618 8.224-3.396 17.842-3.396 8.443 0 15.749 3.23t12.684 8.885q5.396 5.635 8.296 13.344t2.735 16.832l-.165 7.306H459.57l-3.818-13.602h60.206l-2.496 2.809v-3.984q-.496-5.47-3.635-9.783-3.157-4.314-7.966-6.792-4.809-2.496-10.444-2.496-8.958 0-15.107 3.414-6.13 3.396-9.288 9.949-3.139 6.553-3.139 16.171 0 9.123 3.818 15.84 3.8 6.72 10.775 10.353 6.957 3.653 16.08 3.653 6.48 0 12.023-2.147 5.561-2.166 12.04-7.801l8.61 12.114q-3.965 3.965-9.692 6.957T505.42 785.5t-12.518 1.743m51.579-1.67v-87.079h17.089v17.915l-2.992 2.001q1.67-5.819 6.48-10.701 4.809-4.901 11.435-7.967t13.601-3.065q9.95 0 16.594 3.891 6.626 3.91 9.949 11.858 3.304 7.966 3.304 20.081v53.066H602.87v-51.91q0-7.47-2-12.353-1.983-4.9-6.132-7.14t-10.279-1.91q-4.974 0-9.122 1.58t-7.214 4.405q-3.066 2.808-4.81 6.553-1.743 3.726-1.743 8.04v52.735Zm121.569 0h-17.07V676.284h17.07Zm20.246-70.485H630.9v-16.594h55.397Zm41.135 72.155q-9.288 0-16.171-4.313t-10.628-12.115q-3.726-7.8-3.726-18.576v-53.745h17.089v49.101q0 11.436 5.378 18.08 5.396 6.627 15.015 6.627 4.809 0 8.792-1.579 3.983-1.56 6.883-4.387t4.57-6.791q1.653-3.983 1.653-8.627v-52.424h17.089v87.08h-17.09v-18.246l2.993-1.983q-2.001 6.131-6.718 11.105-4.736 4.975-11.197 7.875-6.48 2.918-13.932 2.918m97.853 36.473h-18.41l17.584-40.62.166 13.6-43.466-98.202h19.915l27.185 64.025q.844 1.67 2 5.066t1.983 6.718l-4.313.991q1.34-3.488 2.57-6.975 1.248-3.47 2.404-6.957l22.724-62.868h20.246l-35.83 87.08Z" font-family="Readex Pro" font-size="90.358"/><path d="M918.495 779.406h-15.4v-16.19h15.4Zm52.882 1.266q-11.912 0-20.65-5.47-8.737-5.488-13.583-14.85-4.827-9.38-4.827-20.65 0-11.435 4.827-20.723 4.846-9.288 13.583-14.758 8.738-5.488 20.65-5.488 14.134 0 24.046 7.305 9.93 7.306 13.418 18.907h-12.849q-2.698-6.829-8.664-11.124-5.947-4.295-14.372-4.295-8.737 0-15.235 4.13-6.516 4.13-10.004 10.958-3.506 6.829-3.506 15.089 0 8.094 3.506 15.014 3.488 6.902 10.004 11.032 6.498 4.13 15.235 4.13 8.425 0 14.372-4.295 5.966-4.277 8.664-11.105h12.85q-3.488 11.582-13.419 18.888-9.912 7.305-24.046 7.305m86.694 0q-12.06 0-20.962-5.47-8.884-5.488-13.657-14.85-4.754-9.38-4.754-20.65 0-11.435 4.754-20.723 4.773-9.288 13.657-14.758 8.902-5.488 20.962-5.488 12.225 0 21.054 5.488 8.81 5.47 13.564 14.758 4.773 9.288 4.773 20.724 0 11.27-4.773 20.65-4.754 9.36-13.564 14.85-8.83 5.47-21.054 5.47m0-10.794q8.902 0 15.015-4.13t9.288-11.032q3.175-6.92 3.175-15.014 0-8.26-3.175-15.089t-9.288-10.958-15.015-4.13q-8.72 0-14.923 4.13-6.186 4.13-9.362 10.958t-3.175 15.089q0 8.094 3.175 15.014 3.176 6.902 9.362 11.032 6.204 4.13 14.923 4.13m67.016 9.527h-11.913v-79.407h11.913v12.078q2.698-4.772 8.572-9.049 5.874-4.295 15.566-4.295 7.948 0 14.684 4.203 6.755 4.222 10.573 11.84 1.578-2.699 4.993-6.517 3.414-3.8 8.975-6.663t13.345-2.863q7.617 0 14.28 3.965 6.682 3.983 10.885 11.362t4.204 17.383v47.963h-11.913v-47.633q0-10.004-5.635-16.116-5.635-6.131-14.042-6.131-8.737 0-15.088 5.892-6.351 5.874-6.351 16.502v47.486h-11.913v-47.633q0-10.004-5.635-16.116-5.636-6.131-14.06-6.131-8.738 0-15.089 5.892-6.351 5.874-6.351 16.502Z" font-family="Questrial" font-size="86.513"/></g><path fill="transparent" stroke="transparent" stroke-width="1.908" d="M250 673.664h1000v152.672H250z"/></g></svg>